# xmcd CD database file
#
# Track frame offsets:
#	150
#	24594
#	38660
#	66840
#	84526
#	100457
#	123521
#	153459
#	180307
#
# Disc length: 3113 seconds
#
# Revision: 0
# Processed by: cddbd v1.5.1PL0 Copyright (c) Steve Scherf et al.
# Submitted via: CDex 1.51
#
DISCID=6d0c2709
DTITLE=Fremantle Jazz Orchestra - FJO Live
DYEAR=2003
DGENRE=Jazz
TTITLE0=Give It Up
TTITLE1=Black Nile
TTITLE2=Sister Sadie
TTITLE3=Hay Burner
TTITLE4=Summertime
TTITLE5=Soft Touch
TTITLE6=Today I Sing The Blues
TTITLE7=Yesterdays
TTITLE8=Fremantle Festival Suite
EXTD=YEAR: 2003
EXTT0=
EXTT1=
EXTT2=
EXTT3=
EXTT4=
EXTT5=
EXTT6=
EXTT7=
EXTT8=
PLAYORDER=
